<svg xmlns="http://www.w3.org/2000/svg" width="136.925" height="171.156" viewBox="0 0 136.925 171.156">
  <g id="Icon_ionic-ios-pause" data-name="Icon ionic-ios-pause" transform="translate(-9 -6.75)">
    <path id="Path_13" data-name="Path 13" d="M47.457,177.906H13.332A4.3,4.3,0,0,1,9,173.627V11.029A4.3,4.3,0,0,1,13.332,6.75H47.457a4.3,4.3,0,0,1,4.332,4.279v162.6A4.3,4.3,0,0,1,47.457,177.906Z" transform="translate(0)"/>
    <path id="Path_14" data-name="Path 14" d="M59.832,177.906H25.707a4.3,4.3,0,0,1-4.332-4.279V11.029A4.3,4.3,0,0,1,25.707,6.75H59.832a4.3,4.3,0,0,1,4.332,4.279v162.6A4.3,4.3,0,0,1,59.832,177.906Z" transform="translate(81.761)"/>
  </g>
</svg>
