<svg xmlns="http://www.w3.org/2000/svg" width="498.855" height="463.223" viewBox="0 0 498.855 463.223">
  <path id="Icon_ionic-ios-star" data-name="Icon ionic-ios-star" d="M482.176,163.721h-163.8L268.6,15.178a18.037,18.037,0,0,0-33.851,0L184.978,163.721H20.066A17.869,17.869,0,0,0,2.25,181.538a13.093,13.093,0,0,0,.334,3.007c.223,3.9,2,8.24,7.461,12.583L144.669,292,93,442.212a17.867,17.867,0,0,0,6.124,20.043c3.229,2.338,6.236,4.343,10.022,4.343,3.675,0,8.017-1.893,11.135-4.009l131.395-93.647,131.395,93.647c3.118,2.227,7.461,4.009,11.135,4.009,3.786,0,6.792-1.893,9.91-4.343a17.649,17.649,0,0,0,6.124-20.043L358.575,292l133.511-95.762,3.229-2.784c2.9-3.118,5.79-7.349,5.79-11.915C501.105,171.739,491.975,163.721,482.176,163.721Z" transform="translate(-2.25 -3.375)"/>
</svg>
